<mxfile host="65bd71144e">
    <diagram id="C5RBs43oDa-KdzZeNtuy" name="Page-1">
        <mxGraphModel dx="903" dy="626" grid="1" gridSize="10" guides="1" tooltips="1" connect="1" arrows="1" fold="1" page="1" pageScale="1" pageWidth="1169" pageHeight="1654" math="0" shadow="0">
            <root>
                <mxCell id="WIyWlLk6GJQsqaUBKTNV-0"/>
                <mxCell id="WIyWlLk6GJQsqaUBKTNV-1" parent="WIyWlLk6GJQsqaUBKTNV-0"/>
                <mxCell id="zkfFHV4jXpPFQw0GAbJ--0" value="&lt;&lt;Controller&gt;&gt;&#10;Controller" style="swimlane;fontStyle=0;align=center;verticalAlign=top;childLayout=stackLayout;horizontal=1;startSize=40;horizontalStack=0;resizeParent=1;resizeLast=0;collapsible=1;marginBottom=0;rounded=0;shadow=0;strokeWidth=1;" parent="WIyWlLk6GJQsqaUBKTNV-1" vertex="1">
                    <mxGeometry x="470" y="230" width="160" height="100" as="geometry">
                        <mxRectangle x="470" y="230" width="160" height="26" as="alternateBounds"/>
                    </mxGeometry>
                </mxCell>
                <mxCell id="zkfFHV4jXpPFQw0GAbJ--3" value="placeholder" style="text;align=left;verticalAlign=top;spacingLeft=4;spacingRight=4;overflow=hidden;rotatable=0;points=[[0,0.5],[1,0.5]];portConstraint=eastwest;rounded=0;shadow=0;html=0;" parent="zkfFHV4jXpPFQw0GAbJ--0" vertex="1">
                    <mxGeometry y="40" width="160" height="26" as="geometry"/>
                </mxCell>
                <mxCell id="zkfFHV4jXpPFQw0GAbJ--4" value="" style="line;html=1;strokeWidth=1;align=left;verticalAlign=middle;spacingTop=-1;spacingLeft=3;spacingRight=3;rotatable=0;labelPosition=right;points=[];portConstraint=eastwest;" parent="zkfFHV4jXpPFQw0GAbJ--0" vertex="1">
                    <mxGeometry y="66" width="160" height="8" as="geometry"/>
                </mxCell>
                <mxCell id="zkfFHV4jXpPFQw0GAbJ--5" value="placeholder" style="text;align=left;verticalAlign=top;spacingLeft=4;spacingRight=4;overflow=hidden;rotatable=0;points=[[0,0.5],[1,0.5]];portConstraint=eastwest;" parent="zkfFHV4jXpPFQw0GAbJ--0" vertex="1">
                    <mxGeometry y="74" width="160" height="26" as="geometry"/>
                </mxCell>
                <mxCell id="IUBVetBB4KUgToGqdSRL-0" value="&lt;&lt;Abstract&gt;&gt;&#10;View" style="swimlane;fontStyle=0;align=center;verticalAlign=top;childLayout=stackLayout;horizontal=1;startSize=40;horizontalStack=0;resizeParent=1;resizeLast=0;collapsible=1;marginBottom=0;rounded=0;shadow=0;strokeWidth=1;" parent="WIyWlLk6GJQsqaUBKTNV-1" vertex="1">
                    <mxGeometry x="750" y="230" width="160" height="120" as="geometry">
                        <mxRectangle x="750" y="230" width="160" height="26" as="alternateBounds"/>
                    </mxGeometry>
                </mxCell>
                <mxCell id="IUBVetBB4KUgToGqdSRL-1" value="placeholder" style="text;align=left;verticalAlign=top;spacingLeft=4;spacingRight=4;overflow=hidden;rotatable=0;points=[[0,0.5],[1,0.5]];portConstraint=eastwest;rounded=0;shadow=0;html=0;" parent="IUBVetBB4KUgToGqdSRL-0" vertex="1">
                    <mxGeometry y="40" width="160" height="26" as="geometry"/>
                </mxCell>
                <mxCell id="IUBVetBB4KUgToGqdSRL-2" value="" style="line;html=1;strokeWidth=1;align=left;verticalAlign=middle;spacingTop=-1;spacingLeft=3;spacingRight=3;rotatable=0;labelPosition=right;points=[];portConstraint=eastwest;" parent="IUBVetBB4KUgToGqdSRL-0" vertex="1">
                    <mxGeometry y="66" width="160" height="8" as="geometry"/>
                </mxCell>
                <mxCell id="IUBVetBB4KUgToGqdSRL-3" value="+ updateDisplay : void&#10;+ handleButtons : void" style="text;align=left;verticalAlign=top;spacingLeft=4;spacingRight=4;overflow=hidden;rotatable=0;points=[[0,0.5],[1,0.5]];portConstraint=eastwest;" parent="IUBVetBB4KUgToGqdSRL-0" vertex="1">
                    <mxGeometry y="74" width="160" height="46" as="geometry"/>
                </mxCell>
                <mxCell id="1D-kBS0sXG3JYxeMv-3Y-0" value="Menu" style="swimlane;fontStyle=0;align=center;verticalAlign=top;childLayout=stackLayout;horizontal=1;startSize=30;horizontalStack=0;resizeParent=1;resizeLast=0;collapsible=1;marginBottom=0;rounded=0;shadow=0;strokeWidth=1;" parent="WIyWlLk6GJQsqaUBKTNV-1" vertex="1">
                    <mxGeometry x="830" y="410" width="160" height="116" as="geometry">
                        <mxRectangle x="230" y="140" width="160" height="26" as="alternateBounds"/>
                    </mxGeometry>
                </mxCell>
                <mxCell id="1D-kBS0sXG3JYxeMv-3Y-1" value="Â - menuEntries : enum" style="text;align=left;verticalAlign=top;spacingLeft=4;spacingRight=4;overflow=hidden;rotatable=0;points=[[0,0.5],[1,0.5]];portConstraint=eastwest;rounded=0;shadow=0;html=0;" parent="1D-kBS0sXG3JYxeMv-3Y-0" vertex="1">
                    <mxGeometry y="30" width="160" height="26" as="geometry"/>
                </mxCell>
                <mxCell id="1D-kBS0sXG3JYxeMv-3Y-2" value="" style="line;html=1;strokeWidth=1;align=left;verticalAlign=middle;spacingTop=-1;spacingLeft=3;spacingRight=3;rotatable=0;labelPosition=right;points=[];portConstraint=eastwest;" parent="1D-kBS0sXG3JYxeMv-3Y-0" vertex="1">
                    <mxGeometry y="56" width="160" height="8" as="geometry"/>
                </mxCell>
                <mxCell id="1D-kBS0sXG3JYxeMv-3Y-3" value="+ optionsMenu : void&#10;" style="text;align=left;verticalAlign=top;spacingLeft=4;spacingRight=4;overflow=hidden;rotatable=0;points=[[0,0.5],[1,0.5]];portConstraint=eastwest;" parent="1D-kBS0sXG3JYxeMv-3Y-0" vertex="1">
                    <mxGeometry y="64" width="160" height="26" as="geometry"/>
                </mxCell>
                <mxCell id="13" value="+ mainMenu : void&#10;" style="text;align=left;verticalAlign=top;spacingLeft=4;spacingRight=4;overflow=hidden;rotatable=0;points=[[0,0.5],[1,0.5]];portConstraint=eastwest;" vertex="1" parent="1D-kBS0sXG3JYxeMv-3Y-0">
                    <mxGeometry y="90" width="160" height="26" as="geometry"/>
                </mxCell>
                <mxCell id="1D-kBS0sXG3JYxeMv-3Y-4" value="DisplayDriver" style="swimlane;fontStyle=0;align=center;verticalAlign=top;childLayout=stackLayout;horizontal=1;startSize=40;horizontalStack=0;resizeParent=1;resizeLast=0;collapsible=1;marginBottom=0;rounded=0;shadow=0;strokeWidth=1;" parent="WIyWlLk6GJQsqaUBKTNV-1" vertex="1">
                    <mxGeometry x="960" y="230" width="160" height="100" as="geometry">
                        <mxRectangle x="230" y="140" width="160" height="26" as="alternateBounds"/>
                    </mxGeometry>
                </mxCell>
                <mxCell id="1D-kBS0sXG3JYxeMv-3Y-5" value="placeholder" style="text;align=left;verticalAlign=top;spacingLeft=4;spacingRight=4;overflow=hidden;rotatable=0;points=[[0,0.5],[1,0.5]];portConstraint=eastwest;rounded=0;shadow=0;html=0;" parent="1D-kBS0sXG3JYxeMv-3Y-4" vertex="1">
                    <mxGeometry y="40" width="160" height="26" as="geometry"/>
                </mxCell>
                <mxCell id="1D-kBS0sXG3JYxeMv-3Y-6" value="" style="line;html=1;strokeWidth=1;align=left;verticalAlign=middle;spacingTop=-1;spacingLeft=3;spacingRight=3;rotatable=0;labelPosition=right;points=[];portConstraint=eastwest;" parent="1D-kBS0sXG3JYxeMv-3Y-4" vertex="1">
                    <mxGeometry y="66" width="160" height="8" as="geometry"/>
                </mxCell>
                <mxCell id="1D-kBS0sXG3JYxeMv-3Y-7" value="placeholder" style="text;align=left;verticalAlign=top;spacingLeft=4;spacingRight=4;overflow=hidden;rotatable=0;points=[[0,0.5],[1,0.5]];portConstraint=eastwest;" parent="1D-kBS0sXG3JYxeMv-3Y-4" vertex="1">
                    <mxGeometry y="74" width="160" height="26" as="geometry"/>
                </mxCell>
                <mxCell id="1D-kBS0sXG3JYxeMv-3Y-13" value="Watchface" style="swimlane;fontStyle=0;align=center;verticalAlign=top;childLayout=stackLayout;horizontal=1;startSize=30;horizontalStack=0;resizeParent=1;resizeLast=0;collapsible=1;marginBottom=0;rounded=0;shadow=0;strokeWidth=1;" parent="WIyWlLk6GJQsqaUBKTNV-1" vertex="1">
                    <mxGeometry x="650" y="410" width="160" height="100" as="geometry">
                        <mxRectangle x="230" y="140" width="160" height="26" as="alternateBounds"/>
                    </mxGeometry>
                </mxCell>
                <mxCell id="1D-kBS0sXG3JYxeMv-3Y-14" value="placeholder" style="text;align=left;verticalAlign=top;spacingLeft=4;spacingRight=4;overflow=hidden;rotatable=0;points=[[0,0.5],[1,0.5]];portConstraint=eastwest;rounded=0;shadow=0;html=0;" parent="1D-kBS0sXG3JYxeMv-3Y-13" vertex="1">
                    <mxGeometry y="30" width="160" height="26" as="geometry"/>
                </mxCell>
                <mxCell id="1D-kBS0sXG3JYxeMv-3Y-15" value="" style="line;html=1;strokeWidth=1;align=left;verticalAlign=middle;spacingTop=-1;spacingLeft=3;spacingRight=3;rotatable=0;labelPosition=right;points=[];portConstraint=eastwest;" parent="1D-kBS0sXG3JYxeMv-3Y-13" vertex="1">
                    <mxGeometry y="56" width="160" height="8" as="geometry"/>
                </mxCell>
                <mxCell id="1D-kBS0sXG3JYxeMv-3Y-16" value="placeholder" style="text;align=left;verticalAlign=top;spacingLeft=4;spacingRight=4;overflow=hidden;rotatable=0;points=[[0,0.5],[1,0.5]];portConstraint=eastwest;" parent="1D-kBS0sXG3JYxeMv-3Y-13" vertex="1">
                    <mxGeometry y="64" width="160" height="26" as="geometry"/>
                </mxCell>
                <mxCell id="1D-kBS0sXG3JYxeMv-3Y-23" value="" style="endArrow=block;dashed=1;endFill=0;endSize=12;html=1;rounded=0;exitX=1;exitY=0.5;exitDx=0;exitDy=0;entryX=0;entryY=0.5;entryDx=0;entryDy=0;" parent="WIyWlLk6GJQsqaUBKTNV-1" source="zkfFHV4jXpPFQw0GAbJ--3" target="IUBVetBB4KUgToGqdSRL-1" edge="1">
                    <mxGeometry width="160" relative="1" as="geometry">
                        <mxPoint x="620" y="420" as="sourcePoint"/>
                        <mxPoint x="780" y="420" as="targetPoint"/>
                    </mxGeometry>
                </mxCell>
                <mxCell id="1D-kBS0sXG3JYxeMv-3Y-25" value="&lt;&lt;Service&gt;&gt;&#10;BLEService" style="swimlane;fontStyle=0;align=center;verticalAlign=top;childLayout=stackLayout;horizontal=1;startSize=40;horizontalStack=0;resizeParent=1;resizeLast=0;collapsible=1;marginBottom=0;rounded=0;shadow=0;strokeWidth=1;" parent="WIyWlLk6GJQsqaUBKTNV-1" vertex="1">
                    <mxGeometry x="230" y="410" width="160" height="100" as="geometry">
                        <mxRectangle x="230" y="140" width="160" height="26" as="alternateBounds"/>
                    </mxGeometry>
                </mxCell>
                <mxCell id="1D-kBS0sXG3JYxeMv-3Y-26" value="placeholder" style="text;align=left;verticalAlign=top;spacingLeft=4;spacingRight=4;overflow=hidden;rotatable=0;points=[[0,0.5],[1,0.5]];portConstraint=eastwest;rounded=0;shadow=0;html=0;" parent="1D-kBS0sXG3JYxeMv-3Y-25" vertex="1">
                    <mxGeometry y="40" width="160" height="26" as="geometry"/>
                </mxCell>
                <mxCell id="1D-kBS0sXG3JYxeMv-3Y-27" value="" style="line;html=1;strokeWidth=1;align=left;verticalAlign=middle;spacingTop=-1;spacingLeft=3;spacingRight=3;rotatable=0;labelPosition=right;points=[];portConstraint=eastwest;" parent="1D-kBS0sXG3JYxeMv-3Y-25" vertex="1">
                    <mxGeometry y="66" width="160" height="8" as="geometry"/>
                </mxCell>
                <mxCell id="1D-kBS0sXG3JYxeMv-3Y-28" value="placeholder" style="text;align=left;verticalAlign=top;spacingLeft=4;spacingRight=4;overflow=hidden;rotatable=0;points=[[0,0.5],[1,0.5]];portConstraint=eastwest;" parent="1D-kBS0sXG3JYxeMv-3Y-25" vertex="1">
                    <mxGeometry y="74" width="160" height="26" as="geometry"/>
                </mxCell>
                <mxCell id="1D-kBS0sXG3JYxeMv-3Y-33" value="&lt;&lt;Service&gt;&gt;&#10;WiFiService" style="swimlane;fontStyle=0;align=center;verticalAlign=top;childLayout=stackLayout;horizontal=1;startSize=40;horizontalStack=0;resizeParent=1;resizeLast=0;collapsible=1;marginBottom=0;rounded=0;shadow=0;strokeWidth=1;" parent="WIyWlLk6GJQsqaUBKTNV-1" vertex="1">
                    <mxGeometry x="410" y="410" width="160" height="100" as="geometry">
                        <mxRectangle x="230" y="140" width="160" height="26" as="alternateBounds"/>
                    </mxGeometry>
                </mxCell>
                <mxCell id="1D-kBS0sXG3JYxeMv-3Y-34" value="placeholder" style="text;align=left;verticalAlign=top;spacingLeft=4;spacingRight=4;overflow=hidden;rotatable=0;points=[[0,0.5],[1,0.5]];portConstraint=eastwest;rounded=0;shadow=0;html=0;" parent="1D-kBS0sXG3JYxeMv-3Y-33" vertex="1">
                    <mxGeometry y="40" width="160" height="26" as="geometry"/>
                </mxCell>
                <mxCell id="1D-kBS0sXG3JYxeMv-3Y-35" value="" style="line;html=1;strokeWidth=1;align=left;verticalAlign=middle;spacingTop=-1;spacingLeft=3;spacingRight=3;rotatable=0;labelPosition=right;points=[];portConstraint=eastwest;" parent="1D-kBS0sXG3JYxeMv-3Y-33" vertex="1">
                    <mxGeometry y="66" width="160" height="8" as="geometry"/>
                </mxCell>
                <mxCell id="1D-kBS0sXG3JYxeMv-3Y-36" value="placeholder" style="text;align=left;verticalAlign=top;spacingLeft=4;spacingRight=4;overflow=hidden;rotatable=0;points=[[0,0.5],[1,0.5]];portConstraint=eastwest;" parent="1D-kBS0sXG3JYxeMv-3Y-33" vertex="1">
                    <mxGeometry y="74" width="160" height="26" as="geometry"/>
                </mxCell>
                <mxCell id="1D-kBS0sXG3JYxeMv-3Y-38" value="" style="endArrow=open;endFill=1;endSize=12;html=1;rounded=0;strokeColor=default;edgeStyle=orthogonalEdgeStyle;exitX=0.475;exitY=1.038;exitDx=0;exitDy=0;exitPerimeter=0;entryX=0.5;entryY=0;entryDx=0;entryDy=0;" parent="WIyWlLk6GJQsqaUBKTNV-1" source="zkfFHV4jXpPFQw0GAbJ--5" target="1D-kBS0sXG3JYxeMv-3Y-33" edge="1">
                    <mxGeometry width="160" relative="1" as="geometry">
                        <mxPoint x="590" y="440" as="sourcePoint"/>
                        <mxPoint x="750" y="440" as="targetPoint"/>
                    </mxGeometry>
                </mxCell>
                <mxCell id="1D-kBS0sXG3JYxeMv-3Y-40" value="" style="endArrow=open;endFill=1;endSize=12;html=1;rounded=0;strokeColor=default;edgeStyle=orthogonalEdgeStyle;entryX=0.5;entryY=0;entryDx=0;entryDy=0;" parent="WIyWlLk6GJQsqaUBKTNV-1" target="1D-kBS0sXG3JYxeMv-3Y-25" edge="1">
                    <mxGeometry width="160" relative="1" as="geometry">
                        <mxPoint x="540" y="370" as="sourcePoint"/>
                        <mxPoint x="500" y="420" as="targetPoint"/>
                    </mxGeometry>
                </mxCell>
                <mxCell id="1D-kBS0sXG3JYxeMv-3Y-43" value="" style="endArrow=open;endFill=1;endSize=12;html=1;rounded=0;strokeColor=default;edgeStyle=orthogonalEdgeStyle;entryX=0;entryY=0.5;entryDx=0;entryDy=0;exitX=1;exitY=0.5;exitDx=0;exitDy=0;" parent="WIyWlLk6GJQsqaUBKTNV-1" source="IUBVetBB4KUgToGqdSRL-1" target="1D-kBS0sXG3JYxeMv-3Y-5" edge="1">
                    <mxGeometry width="160" relative="1" as="geometry">
                        <mxPoint x="1070" y="360" as="sourcePoint"/>
                        <mxPoint x="650" y="470" as="targetPoint"/>
                    </mxGeometry>
                </mxCell>
                <mxCell id="1D-kBS0sXG3JYxeMv-3Y-44" value="&lt;&lt;Model&gt;&gt;&#10;Model&#10;" style="swimlane;fontStyle=0;align=center;verticalAlign=top;childLayout=stackLayout;horizontal=1;startSize=40;horizontalStack=0;resizeParent=1;resizeLast=0;collapsible=1;marginBottom=0;rounded=0;shadow=0;strokeWidth=1;" parent="WIyWlLk6GJQsqaUBKTNV-1" vertex="1">
                    <mxGeometry x="210" y="140" width="160" height="100" as="geometry">
                        <mxRectangle x="230" y="140" width="160" height="26" as="alternateBounds"/>
                    </mxGeometry>
                </mxCell>
                <mxCell id="1D-kBS0sXG3JYxeMv-3Y-45" value="placeholder" style="text;align=left;verticalAlign=top;spacingLeft=4;spacingRight=4;overflow=hidden;rotatable=0;points=[[0,0.5],[1,0.5]];portConstraint=eastwest;rounded=0;shadow=0;html=0;" parent="1D-kBS0sXG3JYxeMv-3Y-44" vertex="1">
                    <mxGeometry y="40" width="160" height="26" as="geometry"/>
                </mxCell>
                <mxCell id="1D-kBS0sXG3JYxeMv-3Y-46" value="" style="line;html=1;strokeWidth=1;align=left;verticalAlign=middle;spacingTop=-1;spacingLeft=3;spacingRight=3;rotatable=0;labelPosition=right;points=[];portConstraint=eastwest;" parent="1D-kBS0sXG3JYxeMv-3Y-44" vertex="1">
                    <mxGeometry y="66" width="160" height="8" as="geometry"/>
                </mxCell>
                <mxCell id="1D-kBS0sXG3JYxeMv-3Y-47" value="placeholder" style="text;align=left;verticalAlign=top;spacingLeft=4;spacingRight=4;overflow=hidden;rotatable=0;points=[[0,0.5],[1,0.5]];portConstraint=eastwest;" parent="1D-kBS0sXG3JYxeMv-3Y-44" vertex="1">
                    <mxGeometry y="74" width="160" height="26" as="geometry"/>
                </mxCell>
                <mxCell id="1D-kBS0sXG3JYxeMv-3Y-50" value="" style="endArrow=open;endFill=1;endSize=12;html=1;rounded=0;edgeStyle=orthogonalEdgeStyle;exitX=0;exitY=0.5;exitDx=0;exitDy=0;entryX=1;entryY=0.5;entryDx=0;entryDy=0;" parent="WIyWlLk6GJQsqaUBKTNV-1" source="zkfFHV4jXpPFQw0GAbJ--3" target="1D-kBS0sXG3JYxeMv-3Y-45" edge="1">
                    <mxGeometry width="160" relative="1" as="geometry">
                        <mxPoint x="440" y="90" as="sourcePoint"/>
                        <mxPoint x="540" y="182.9999999999999" as="targetPoint"/>
                    </mxGeometry>
                </mxCell>
                <mxCell id="1D-kBS0sXG3JYxeMv-3Y-51" value="StabelBMA456&#10;" style="swimlane;fontStyle=0;align=center;verticalAlign=top;childLayout=stackLayout;horizontal=1;startSize=30;horizontalStack=0;resizeParent=1;resizeLast=0;collapsible=1;marginBottom=0;rounded=0;shadow=0;strokeWidth=1;" parent="WIyWlLk6GJQsqaUBKTNV-1" vertex="1">
                    <mxGeometry y="80" width="160" height="100" as="geometry">
                        <mxRectangle x="230" y="140" width="160" height="26" as="alternateBounds"/>
                    </mxGeometry>
                </mxCell>
                <mxCell id="1D-kBS0sXG3JYxeMv-3Y-52" value="placeholder" style="text;align=left;verticalAlign=top;spacingLeft=4;spacingRight=4;overflow=hidden;rotatable=0;points=[[0,0.5],[1,0.5]];portConstraint=eastwest;rounded=0;shadow=0;html=0;" parent="1D-kBS0sXG3JYxeMv-3Y-51" vertex="1">
                    <mxGeometry y="30" width="160" height="26" as="geometry"/>
                </mxCell>
                <mxCell id="1D-kBS0sXG3JYxeMv-3Y-53" value="" style="line;html=1;strokeWidth=1;align=left;verticalAlign=middle;spacingTop=-1;spacingLeft=3;spacingRight=3;rotatable=0;labelPosition=right;points=[];portConstraint=eastwest;" parent="1D-kBS0sXG3JYxeMv-3Y-51" vertex="1">
                    <mxGeometry y="56" width="160" height="8" as="geometry"/>
                </mxCell>
                <mxCell id="1D-kBS0sXG3JYxeMv-3Y-54" value="placeholder" style="text;align=left;verticalAlign=top;spacingLeft=4;spacingRight=4;overflow=hidden;rotatable=0;points=[[0,0.5],[1,0.5]];portConstraint=eastwest;" parent="1D-kBS0sXG3JYxeMv-3Y-51" vertex="1">
                    <mxGeometry y="64" width="160" height="26" as="geometry"/>
                </mxCell>
                <mxCell id="1D-kBS0sXG3JYxeMv-3Y-55" value="RTC&#10;" style="swimlane;fontStyle=0;align=center;verticalAlign=top;childLayout=stackLayout;horizontal=1;startSize=30;horizontalStack=0;resizeParent=1;resizeLast=0;collapsible=1;marginBottom=0;rounded=0;shadow=0;strokeWidth=1;" parent="WIyWlLk6GJQsqaUBKTNV-1" vertex="1">
                    <mxGeometry y="206" width="160" height="100" as="geometry">
                        <mxRectangle x="230" y="140" width="160" height="26" as="alternateBounds"/>
                    </mxGeometry>
                </mxCell>
                <mxCell id="1D-kBS0sXG3JYxeMv-3Y-56" value="placeholder" style="text;align=left;verticalAlign=top;spacingLeft=4;spacingRight=4;overflow=hidden;rotatable=0;points=[[0,0.5],[1,0.5]];portConstraint=eastwest;rounded=0;shadow=0;html=0;" parent="1D-kBS0sXG3JYxeMv-3Y-55" vertex="1">
                    <mxGeometry y="30" width="160" height="26" as="geometry"/>
                </mxCell>
                <mxCell id="1D-kBS0sXG3JYxeMv-3Y-57" value="" style="line;html=1;strokeWidth=1;align=left;verticalAlign=middle;spacingTop=-1;spacingLeft=3;spacingRight=3;rotatable=0;labelPosition=right;points=[];portConstraint=eastwest;" parent="1D-kBS0sXG3JYxeMv-3Y-55" vertex="1">
                    <mxGeometry y="56" width="160" height="8" as="geometry"/>
                </mxCell>
                <mxCell id="1D-kBS0sXG3JYxeMv-3Y-58" value="placeholder" style="text;align=left;verticalAlign=top;spacingLeft=4;spacingRight=4;overflow=hidden;rotatable=0;points=[[0,0.5],[1,0.5]];portConstraint=eastwest;" parent="1D-kBS0sXG3JYxeMv-3Y-55" vertex="1">
                    <mxGeometry y="64" width="160" height="26" as="geometry"/>
                </mxCell>
                <mxCell id="1D-kBS0sXG3JYxeMv-3Y-59" value="" style="endArrow=open;endFill=1;endSize=12;html=1;rounded=0;strokeColor=default;edgeStyle=orthogonalEdgeStyle;exitX=0;exitY=0.5;exitDx=0;exitDy=0;entryX=1;entryY=0.5;entryDx=0;entryDy=0;" parent="WIyWlLk6GJQsqaUBKTNV-1" source="1D-kBS0sXG3JYxeMv-3Y-45" target="1D-kBS0sXG3JYxeMv-3Y-52" edge="1">
                    <mxGeometry width="160" relative="1" as="geometry">
                        <mxPoint x="206" y="280" as="sourcePoint"/>
                        <mxPoint x="190" y="90" as="targetPoint"/>
                    </mxGeometry>
                </mxCell>
                <mxCell id="1D-kBS0sXG3JYxeMv-3Y-60" value="" style="endArrow=open;endFill=1;endSize=12;html=1;rounded=0;strokeColor=default;edgeStyle=orthogonalEdgeStyle;exitX=0;exitY=0.5;exitDx=0;exitDy=0;entryX=1;entryY=0.5;entryDx=0;entryDy=0;" parent="WIyWlLk6GJQsqaUBKTNV-1" source="1D-kBS0sXG3JYxeMv-3Y-45" target="1D-kBS0sXG3JYxeMv-3Y-55" edge="1">
                    <mxGeometry width="160" relative="1" as="geometry">
                        <mxPoint x="220" y="203" as="sourcePoint"/>
                        <mxPoint x="170" y="93" as="targetPoint"/>
                    </mxGeometry>
                </mxCell>
                <mxCell id="1" value="" style="endArrow=open;endFill=1;endSize=12;html=1;entryX=0.992;entryY=0.501;entryDx=0;entryDy=0;entryPerimeter=0;exitX=0;exitY=0.5;exitDx=0;exitDy=0;exitPerimeter=0;" edge="1" parent="WIyWlLk6GJQsqaUBKTNV-1" source="IUBVetBB4KUgToGqdSRL-2" target="zkfFHV4jXpPFQw0GAbJ--4">
                    <mxGeometry width="160" relative="1" as="geometry">
                        <mxPoint x="670" y="300" as="sourcePoint"/>
                        <mxPoint x="750" y="306" as="targetPoint"/>
                    </mxGeometry>
                </mxCell>
                <mxCell id="2" value="Observer" style="edgeLabel;html=1;align=center;verticalAlign=middle;resizable=0;points=[];" vertex="1" connectable="0" parent="1">
                    <mxGeometry x="0.3307" y="1" relative="1" as="geometry">
                        <mxPoint y="12" as="offset"/>
                    </mxGeometry>
                </mxCell>
                <mxCell id="8" value="1" style="endArrow=open;html=1;endSize=12;startArrow=diamondThin;startSize=14;startFill=1;edgeStyle=orthogonalEdgeStyle;align=left;verticalAlign=bottom;rounded=0;exitX=0.688;exitY=1;exitDx=0;exitDy=0;exitPerimeter=0;entryX=0.221;entryY=-0.029;entryDx=0;entryDy=0;entryPerimeter=0;" edge="1" parent="WIyWlLk6GJQsqaUBKTNV-1" source="zkfFHV4jXpPFQw0GAbJ--5" target="1D-kBS0sXG3JYxeMv-3Y-13">
                    <mxGeometry x="-1" y="3" relative="1" as="geometry">
                        <mxPoint x="600" y="360" as="sourcePoint"/>
                        <mxPoint x="910" y="400" as="targetPoint"/>
                    </mxGeometry>
                </mxCell>
                <mxCell id="10" value="" style="endArrow=open;endFill=1;endSize=12;html=1;rounded=0;edgeStyle=orthogonalEdgeStyle;exitX=0.492;exitY=1;exitDx=0;exitDy=0;exitPerimeter=0;entryX=0.5;entryY=0;entryDx=0;entryDy=0;" edge="1" parent="WIyWlLk6GJQsqaUBKTNV-1" source="IUBVetBB4KUgToGqdSRL-3" target="1D-kBS0sXG3JYxeMv-3Y-0">
                    <mxGeometry width="160" relative="1" as="geometry">
                        <mxPoint x="770" y="370" as="sourcePoint"/>
                        <mxPoint x="930" y="370" as="targetPoint"/>
                        <Array as="points">
                            <mxPoint x="830" y="350"/>
                            <mxPoint x="830" y="380"/>
                            <mxPoint x="910" y="380"/>
                        </Array>
                    </mxGeometry>
                </mxCell>
                <mxCell id="11" value="" style="endArrow=open;endFill=1;endSize=12;html=1;rounded=0;edgeStyle=orthogonalEdgeStyle;" edge="1" parent="WIyWlLk6GJQsqaUBKTNV-1" target="1D-kBS0sXG3JYxeMv-3Y-13">
                    <mxGeometry width="160" relative="1" as="geometry">
                        <mxPoint x="830" y="350" as="sourcePoint"/>
                        <mxPoint x="910" y="350" as="targetPoint"/>
                        <Array as="points">
                            <mxPoint x="830" y="350"/>
                            <mxPoint x="830" y="380"/>
                            <mxPoint x="730" y="380"/>
                        </Array>
                    </mxGeometry>
                </mxCell>
            </root>
        </mxGraphModel>
    </diagram>
</mxfile>